# xmcd
#
# Track frame offsets:
#	150
#	18823
#	39777
#	55726
# Disc length: 971 seconds
# Revision: 1
# Processed by: cddbd v1.5.2PL0 Copyright (c) Steve Scherf et al.
#
# Submitted via: libkcddb 0.21
#
DISCID=1f03c904
DTITLE=Jimmy Whiffen - Kiss Your Smile
DYEAR=2008
DGENRE=Country
TTITLE0=Kiss Your Smile
TTITLE1=Daniel's Daughter
TTITLE2=Leaving You For The Last Time
TTITLE3=Daniel's Daughter (Radio Mix)
EXTD=Upload by Hole In The Guitar Productions
EXTT0=
EXTT1=
EXTT2=
EXTT3=
PLAYORDER=
